<?xml version="1.0" encoding="UTF-8"?>
<svg xmlns="http://www.w3.org/2000/svg" xmlns:xlink="http://www.w3.org/1999/xlink" width="328pt" height="140pt" viewBox="0 0 328 140" version="1.2">
<g id="surface1">
<path style=" stroke:none;fill-rule:nonzero;fill:#166534;fill-opacity:1;" d="M 85.917969 0.371094 L 56.550781 0.378906 L 27.183594 0.382812 L 25.363281 1.21875 L 24.972656 1.65625 L 24.582031 2.097656 L 24.230469 2.933594 L 23.882812 3.773438 L 23.882812 5.394531 L 24.191406 6.128906 L 24.496094 6.867188 L 25.332031 7.601562 L 26.167969 8.332031 L 26.675781 8.449219 L 27.183594 8.570312 L 57.226562 8.628906 L 87.273438 8.691406 L 88.976562 9.214844 L 90.679688 9.734375 L 93.695312 11.320312 L 94.808594 12.269531 L 95.921875 13.214844 L 97.246094 14.703125 L 98.566406 16.191406 L 100.355469 19.832031 L 100.699219 21.183594 L 101.039062 22.53125 L 101.179688 24.253906 L 101.320312 25.980469 L 101.070312 27.742188 L 100.820312 29.507812 L 99.875 32.351562 L 98.015625 35.539062 L 96.035156 37.507812 L 94.054688 39.480469 L 91.898438 40.527344 L 89.738281 41.578125 L 88.164062 41.914062 L 86.589844 42.246094 L 30.878906 42.253906 L 29.984375 42.519531 L 29.09375 42.785156 L 28.328125 43.570312 L 27.566406 44.355469 L 27.308594 45.296875 L 27.050781 46.234375 L 27.117188 67.859375 L 27.183594 89.480469 L 27.714844 90.414062 L 28.25 91.34375 L 28.933594 91.746094 L 29.613281 92.148438 L 30.824219 92.515625 L 31.164062 92.535156 L 31.507812 92.554688 L 32.351562 92.316406 L 33.199219 92.082031 L 33.898438 91.496094 L 34.597656 90.90625 L 35.378906 89.484375 L 35.441406 70.078125 L 35.503906 50.675781 L 59.679688 50.671875 L 83.859375 50.667969 L 86.433594 50.457031 L 89.011719 50.242188 L 90.988281 49.753906 L 92.964844 49.261719 L 94.59375 48.515625 L 96.222656 47.765625 L 97.792969 46.75 L 99.359375 45.738281 L 100.96875 44.355469 L 102.574219 42.972656 L 103.964844 41.242188 L 105.351562 39.515625 L 106.246094 37.984375 L 107.140625 36.449219 L 107.742188 34.972656 L 108.34375 33.492188 L 109.273438 30.078125 L 109.394531 26.433594 L 109.519531 22.792969 L 109.136719 20.773438 L 108.757812 18.753906 L 107.429688 15.113281 L 106.601562 13.605469 L 105.777344 12.09375 L 104.664062 10.59375 L 103.554688 9.089844 L 101.722656 7.339844 L 99.894531 5.59375 L 97.851562 4.25 L 95.808594 2.910156 L 93.988281 2.207031 L 92.164062 1.503906 L 90.875 1.167969 L 89.582031 0.832031 Z M 201.566406 0.371094 L 200.570312 0.855469 L 199.570312 1.335938 L 198.960938 2.261719 L 198.347656 3.183594 L 198.121094 77.449219 L 195.730469 74.804688 L 193.34375 72.164062 L 184.632812 62.464844 L 175.917969 52.769531 L 175.152344 52.40625 L 174.382812 52.039062 L 172.214844 52.039062 L 171.246094 52.609375 L 170.277344 53.175781 L 169.261719 54.816406 L 169.261719 57.277344 L 170.582031 59.300781 L 174.335938 63.46875 L 178.09375 67.640625 L 188.40625 79.132812 L 198.722656 90.621094 L 199.519531 91.34375 L 200.316406 92.0625 L 201.152344 92.285156 L 201.992188 92.507812 L 202.476562 92.554688 L 204.742188 91.882812 L 205.328125 91.25 L 205.917969 90.621094 L 206.175781 90.121094 L 206.429688 89.625 L 206.429688 3.589844 L 206.1875 2.949219 L 205.941406 2.308594 L 204.949219 1.222656 L 204.039062 0.800781 L 203.128906 0.382812 L 202.347656 0.375 Z M 126.195312 0.375 L 125.171875 0.375 L 124.148438 0.378906 L 123.234375 0.800781 L 122.324219 1.21875 L 121.363281 2.304688 L 121.105469 3.078125 L 120.84375 3.851562 L 120.84375 89.222656 L 121.796875 91.183594 L 123.023438 92.058594 L 124.601562 92.511719 L 124.941406 92.53125 L 125.285156 92.550781 L 126.132812 92.316406 L 126.976562 92.082031 L 127.675781 91.496094 L 128.375 90.90625 L 128.765625 90.195312 L 129.152344 89.480469 L 129.269531 52.523438 L 129.382812 15.566406 L 134.65625 21.425781 L 141.789062 29.390625 L 148.921875 37.359375 L 150.152344 38.703125 L 151.386719 40.042969 L 153.035156 40.886719 L 153.957031 40.878906 L 154.875 40.875 L 156.78125 40.007812 L 157.371094 39.113281 L 157.964844 38.214844 L 158.097656 37.402344 L 158.230469 36.585938 L 158.078125 35.78125 L 157.929688 34.976562 L 151.921875 28.25 L 139.777344 14.75 L 127.636719 1.25 L 126.914062 0.808594 Z M 233.628906 0.375 L 230.699219 0.851562 L 229.320312 1.308594 L 227.941406 1.769531 L 224.832031 3.597656 L 221.605469 6.628906 L 220.515625 8.289062 L 219.429688 9.949219 L 218.9375 11.25 L 218.445312 12.546875 L 218.121094 14.386719 L 217.800781 16.226562 L 217.863281 47.390625 L 217.925781 78.558594 L 218.671875 80.71875 L 219.417969 82.882812 L 221.949219 86.632812 L 224.972656 89.40625 L 226.410156 90.210938 L 227.851562 91.015625 L 229.035156 91.472656 L 230.214844 91.929688 L 233.855469 92.515625 L 267.21875 92.480469 L 300.582031 92.441406 L 301.527344 91.816406 L 302.476562 91.191406 L 302.933594 90.289062 L 303.394531 89.386719 L 303.394531 87.183594 L 302.738281 86.148438 L 302.078125 85.109375 L 301.070312 84.621094 L 300.0625 84.136719 L 233.597656 84.136719 L 232.382812 83.773438 L 231.167969 83.414062 L 230.351562 82.890625 L 229.53125 82.371094 L 228.554688 81.375 L 227.578125 80.382812 L 226.960938 79.128906 L 226.347656 77.875 L 226.347656 15.054688 L 227.683594 12.328125 L 229.878906 10.132812 L 231.414062 9.40625 L 232.945312 8.679688 L 266.863281 8.566406 L 300.777344 8.453125 L 301.257812 8.175781 L 301.738281 7.902344 L 302.449219 7.09375 L 303.160156 6.28125 L 303.304688 5.703125 L 303.449219 5.128906 L 303.34375 4.011719 L 303.234375 2.894531 L 302.601562 2.066406 L 301.96875 1.234375 L 300.09375 0.382812 L 266.863281 0.378906 Z M 111.769531 111.179688 L 108.214844 111.34375 L 108.152344 121.296875 L 108.09375 131.25 L 107.914062 131.25 L 93.953125 124.738281 L 79.988281 118.222656 L 76.6875 116.683594 L 73.390625 115.140625 L 69.199219 113.1875 L 65.011719 111.234375 L 64.820312 111.355469 L 64.625 111.476562 L 64.625 138.003906 L 64.785156 138.164062 L 64.945312 138.320312 L 67.117188 138.257812 L 69.292969 138.191406 L 69.410156 118.277344 L 69.589844 118.277344 L 71.832031 119.324219 L 74.070312 120.375 L 80.332031 123.285156 L 86.589844 126.199219 L 96.152344 130.683594 L 105.710938 135.171875 L 109.070312 136.75 L 112.433594 138.328125 L 112.65625 138.191406 L 112.878906 138.050781 L 112.878906 111.457031 L 112.328125 111.316406 Z M 279.039062 111.21875 L 279.039062 115.773438 L 302.996094 115.71875 L 326.953125 115.660156 L 326.953125 111.335938 Z M 0.550781 111.335938 L 0.550781 133.183594 L 1.226562 134.40625 L 1.902344 135.625 L 2.789062 136.382812 L 3.675781 137.144531 L 4.730469 137.640625 L 5.785156 138.140625 L 6.925781 138.292969 L 8.0625 138.449219 L 25.121094 138.375 L 42.183594 138.304688 L 43.707031 137.882812 L 44.679688 137.308594 L 45.65625 136.738281 L 46.519531 135.785156 L 47.378906 134.835938 L 47.863281 133.78125 L 48.351562 132.730469 L 48.351562 111.335938 L 43.796875 111.335938 L 43.683594 121.859375 L 43.570312 132.378906 L 42.828125 133.125 L 42.082031 133.867188 L 24.789062 133.929688 L 7.5 133.988281 L 6.714844 133.664062 L 5.933594 133.335938 L 5.519531 132.703125 L 5.101562 132.066406 L 4.988281 121.699219 L 4.875 111.335938 Z M 129.15625 111.335938 L 129.09375 124.648438 L 129.035156 137.964844 L 129.125 138.191406 L 129.210938 138.421875 L 131.457031 138.382812 L 133.707031 138.34375 L 133.707031 111.335938 Z M 262.484375 111.335938 L 257.984375 111.476562 L 258.046875 121.375 L 258.109375 131.277344 L 257.679688 132.246094 L 257.25 133.21875 L 256.445312 133.601562 L 255.640625 133.980469 L 221.636719 133.980469 L 220.113281 133.261719 L 219.703125 132.652344 L 219.289062 132.046875 L 219.0625 111.40625 L 216.898438 111.382812 L 214.738281 111.359375 L 214.738281 132.960938 L 215.289062 134.078125 L 215.839844 135.199219 L 216.703125 136.0625 L 217.566406 136.921875 L 219.519531 137.921875 L 220.085938 138.097656 L 220.65625 138.273438 L 238.980469 138.234375 L 257.300781 138.195312 L 258.292969 137.664062 L 259.28125 137.136719 L 260.277344 136.21875 L 261.277344 135.300781 L 262.535156 132.730469 L 262.605469 122.28125 L 262.671875 111.832031 L 262.578125 111.585938 Z M 155.558594 111.5625 L 154.515625 112.074219 L 153.476562 112.589844 L 152.574219 113.359375 L 151.675781 114.128906 L 151 115.351562 L 150.324219 116.570312 L 150.257812 124.5 L 150.1875 132.433594 L 150.554688 133.542969 L 150.925781 134.652344 L 151.910156 135.75 L 152.898438 136.84375 L 154.113281 137.519531 L 155.332031 138.195312 L 172.761719 138.253906 L 190.191406 138.320312 L 190.957031 139.109375 L 191.726562 139.902344 L 198.007812 139.902344 L 198.007812 139.480469 L 193.738281 135.488281 L 189.472656 131.496094 L 186.34375 131.488281 L 183.214844 131.476562 L 183.214844 131.890625 L 184.410156 132.929688 L 185.601562 133.972656 L 156.992188 133.980469 L 155.539062 133.292969 L 155.148438 132.632812 L 154.761719 131.976562 L 154.765625 124.957031 L 154.765625 117.933594 L 155.050781 117.375 L 155.335938 116.8125 L 156.875 115.773438 L 191.203125 115.773438 L 192.5625 116.476562 L 193.007812 117.207031 L 193.453125 117.933594 L 193.453125 131.199219 L 195.730469 133.300781 L 198.007812 135.398438 L 198.007812 116.984375 L 196.609375 114.1875 L 195.675781 113.390625 L 194.742188 112.589844 L 193.699219 112.074219 L 192.65625 111.5625 Z M 279.039062 122.597656 L 279.039062 126.925781 L 324.808594 126.925781 L 324.675781 122.714844 L 301.859375 122.65625 Z M 279.039062 133.980469 L 279.039062 138.308594 L 327.082031 138.308594 L 327.019531 136.203125 L 326.953125 134.097656 Z M 279.039062 133.980469 "/>
</g>
</svg>
